# xmcd
#
# Track frame offsets:
#   150
#   16055
#   35520
#   56740
#   68197
#   83720
#   94997
#   107165
#   120320
#   136712
#   147152
#   159877
#
# Disc length: 2290 seconds
#
# Revision: 0
# Processed by: cddbd v1.5.1PL2 Copyright (c) Steve Scherf et al.
# Submitted via: uFREEDB ActiveX Control 1.5
#
DISCID=9308f00c
DTITLE=Silveira and Barrinha - Cantam Seus Grandes Sucessos
DYEAR=2002
DGENRE=Latin
TTITLE0=Berrante De Ouro
TTITLE1=Sai Da Frente Minha Gente
TTITLE2=Alegria No Sertão
TTITLE3=Volta Do Peão
TTITLE4=Voltei Amor
TTITLE5=O Meu Amor Achou
TTITLE6=Embriagado
TTITLE7=Coração Apaixonado
TTITLE8=Saudade
TTITLE9=Mineiro De Uberaba
TTITLE10=No Meu Sertão
TTITLE11=Natal, Natal
EXTD=
EXTT0=
EXTT1=
EXTT2=
EXTT3=
EXTT4=
EXTT5=
EXTT6=
EXTT7=
EXTT8=
EXTT9=
EXTT10=
EXTT11=
PLAYORDER=
